<svg width="58" height="48" viewBox="0 0 58 48" fill="none" xmlns="http://www.w3.org/2000/svg">
<path d="M57.6371 4.07721C47.8147 9.82239 40.7722 15.3822 39.6602 27.2432H44.2934C53.3745 27.2432 55.7838 32.2471 55.7838 37.6216C55.7838 42.6255 51.8919 48 45.2201 48C34.8417 48 31.3205 40.5869 31.3205 29.4672C31.3205 13.5289 47.2587 4.6332 55.4131 0L57.6371 4.07721ZM26.3166 4.07721C16.4942 9.82239 9.45174 15.3822 8.33977 27.2432H12.973C22.0541 27.2432 24.4633 32.2471 24.4633 37.6216C24.4633 42.6255 20.5714 48 13.8996 48C3.52124 48 0 40.5869 0 29.4672C0 13.5289 15.9382 4.6332 24.0927 0L26.3166 4.07721Z" fill="#EFEFEF"/>
</svg>
